<?xml version="1.0" encoding="UTF-8" standalone="no"?>
<svg
   xmlns:dc="http://purl.org/dc/elements/1.1/"
   xmlns:cc="http://creativecommons.org/ns#"
   xmlns:rdf="http://www.w3.org/1999/02/22-rdf-syntax-ns#"
   xmlns:svg="http://www.w3.org/2000/svg"
   xmlns="http://www.w3.org/2000/svg"
   xmlns:sodipodi="http://sodipodi.sourceforge.net/DTD/sodipodi-0.dtd"
   xmlns:inkscape="http://www.inkscape.org/namespaces/inkscape"
   preserveAspectRatio="xMinYMin meet"
   viewBox="0 0 81 24"
   width="81"
   height="24"
   id="svg2"
   version="1.1"
   inkscape:version="0.48.3.1 r9886"
   sodipodi:docname="dr-logos.svg">
  <metadata
     id="metadata106">
    <rdf:RDF>
      <cc:Work
         rdf:about="">
        <dc:format>image/svg+xml</dc:format>
        <dc:type
           rdf:resource="http://purl.org/dc/dcmitype/StillImage" />
      </cc:Work>
    </rdf:RDF>
  </metadata>
  <defs
     id="defs104" />
  <sodipodi:namedview
     pagecolor="#ffffff"
     bordercolor="#666666"
     borderopacity="1"
     objecttolerance="10"
     gridtolerance="10"
     guidetolerance="10"
     inkscape:pageopacity="0"
     inkscape:pageshadow="2"
     inkscape:window-width="1200"
     inkscape:window-height="1870"
     id="namedview102"
     showgrid="false"
     fit-margin-top="0"
     fit-margin-left="0"
     fit-margin-right="0"
     fit-margin-bottom="0"
     inkscape:zoom="4.1"
     inkscape:cx="62.766047"
     inkscape:cy="-63.283314"
     inkscape:window-x="0"
     inkscape:window-y="0"
     inkscape:window-maximized="1"
     inkscape:current-layer="svg2" />
  <path
     d="M 0,0 H 81 V 24 H 0 z"
     id="path36"
     inkscape:connector-curvature="0" />
  <path
     d="M 32.135,5.659 H 14.444 c -0.157,0 -0.235,0.092 -0.235,0.231 v 11.736 c 0,0.142 0.078,0.231 0.235,0.231 h 17.691 c 5.196,0 7.819,-1.7 7.819,-6.139 0,-4.406 -2.623,-6.059 -7.819,-6.059 z m -4.581,9.957 h -5.542 c -0.158,0 -0.188,-0.062 -0.188,-0.187 V 8.086 c 0,-0.124 0.03,-0.186 0.188,-0.186 h 5.542 c 3.296,0 4.615,0.928 4.615,3.851 -10e-4,2.924 -1.319,3.865 -4.615,3.865 z m 40.309,1.748 -5.117,-3.558 c -0.125,-0.092 -0.205,-0.139 -0.205,-0.201 0,-0.061 0.048,-0.094 0.158,-0.094 2.59,0 4.599,-1.188 4.599,-3.818 0,-2.613 -1.728,-4.036 -4.913,-4.036 H 42.998 c -0.157,0 -0.234,0.092 -0.234,0.231 v 11.736 c 0,0.141 0.077,0.232 0.234,0.232 h 7.134 c 0.157,0 0.236,-0.092 0.236,-0.232 v -2.783 c 0,-0.139 0.046,-0.184 0.188,-0.184 h 4.104 c 0.204,0 0.282,0.016 0.423,0.123 l 3.564,2.906 c 0.174,0.139 0.297,0.17 0.502,0.17 h 8.869 c 0.127,0 0.188,-0.045 0.188,-0.14 0.003,-0.118 -0.218,-0.26 -0.343,-0.352 z M 56.752,12.478 h -6.186 c -0.144,0 -0.189,-0.047 -0.189,-0.186 V 8.086 c 0,-0.139 0.047,-0.186 0.189,-0.186 h 6.186 c 2.071,0 2.95,0.558 2.95,2.244 0,1.699 -0.879,2.334 -2.95,2.334 z"
     id="path38"
     inkscape:connector-curvature="0"
     style="fill:#ffffff" />
</svg>
