<svg xmlns="http://www.w3.org/2000/svg" xmlns:xlink="http://www.w3.org/1999/xlink" version="1.1" x="0px" y="0px" width="100px" height="100px" viewBox="0 0 100 100" enable-background="new 0 0 100 100" xml:space="preserve">
<g id="Captions">
</g>
<g id="Your_Icon">
	<path fill="none" d="M79.111,45.898c-2.41-5.444-6.412-10.138-11.92-13.357c-2.818-1.647-5.768-2.729-8.771-3.298   c-0.701,0.562-1.453,1.066-2.246,1.513c3.645,0.428,7.188,1.566,10.445,3.493C71.906,37.373,76.312,41.183,79.111,45.898z"/>
	<path fill="none" d="M39.457,35.662c0.617,0.033,1.234,0.551,1.234,0.551c0.656,3.667,5.763,4.715,7.334,4.977   c5.762,0.393,7.857-3.012,8.643-5.893c1.178-1.965,1.703-0.393,2.096,2.487c0.525,8.761,3.629,12.715,6.49,17.313   c1.414,2.275,2.836,1.972,2.545-0.489c-1.475-12.42-0.484-16.093,1.289-16.218c-1.158-0.991-2.416-1.897-3.777-2.702   c-3.014-1.781-6.199-2.843-9.428-3.261c0.082,5.838-3.582,6.886-7.77,7.409c-4.452-0.263-6.199-3.405-7.159-4.89   c-0.011-0.023-0.022-0.048-0.032-0.072c-0.475,0.218-0.947,0.447-1.414,0.689C39.49,35.597,39.475,35.63,39.457,35.662z"/>
	<path fill="none" d="M37.827,38.656c-0.886,1.559-1.782,3.079-2.374,4.235c-4.451,5.501-6.547,18.334-6.154,23.44   c2.488,10.87,3.143,2.096,3.273-0.522C31.783,55.085,36.377,42.708,37.827,38.656z"/>
	<path fill="none" d="M76.383,77.943c1.498-2.479,2.682-5.054,3.553-7.669C79.029,72.703,77.85,75.258,76.383,77.943z"/>
	<path fill="#000000" d="M50.871,13.952l-0.948-0.306l-0.368,1.142l0.906,0.292c0.216,0.069,0.371,0.077,0.467,0.022   c0.094-0.054,0.18-0.197,0.254-0.431c0.076-0.235,0.096-0.398,0.057-0.487C51.199,14.097,51.078,14.019,50.871,13.952z"/>
	<polygon fill="#000000" points="44.077,13.549 45.359,13.946 45.871,12.295 45.852,12.289  "/>
	<path fill="#000000" d="M67.799,54.608c0.291,2.461-1.131,2.765-2.545,0.489c-2.861-4.599-5.965-8.553-6.49-17.313   c-0.393-2.88-0.918-4.452-2.096-2.487c-0.785,2.881-2.881,6.285-8.643,5.893c-1.571-0.262-6.678-1.31-7.334-4.977   c0,0-0.438-0.628-1.056-0.66c-0.069-0.033-0.146,0.044-0.128,0.012c-5.834,3.021-11.059,7.953-14.793,14.268   c-7.089,11.994-6.127,25.682,1.572,35.097c2.061,2.521,12.812,8.169,18.988,7.726c11.393-0.786,20.297-3.798,28.154-14.929   c8.275-13.476,6.389-30.139-4.342-39.335C67.314,38.516,66.324,42.188,67.799,54.608z M29.299,66.332   c-0.393-5.106,1.703-17.939,6.154-23.44c0.592-1.156,1.488-2.677,2.374-4.235c-1.45,4.052-6.044,16.429-5.255,27.153   C32.441,68.428,31.787,77.202,29.299,66.332z"/>
	<path fill="#000000" d="M68.635,30.972c-2.688-1.571-5.551-2.661-8.506-3.306c2.65-2.819,4.266-6.548,4.266-10.639   c0-8.787-7.447-15.91-16.631-15.91c-9.186,0-16.631,7.123-16.631,15.91c0,5.513,2.93,10.369,7.379,13.225   c-7.608,3.402-14.492,9.311-19.179,17.151c-7.19,12.029-7.485,25.585-2.104,36.075c0.984,1.919,2.158,3.733,3.514,5.418   c0.924,1.147,3.284,3.006,6.246,4.8c4.57,2.767,11.344,5.636,15.713,5.245c12.982,0.649,26.988-4.032,34.988-17.415   C93.449,55.518,84.748,40.394,68.635,30.972z M47.011,1.838c6.056,0,10.968,4.295,10.968,9.592c0,5.298-4.912,9.593-10.968,9.593   c-6.058,0-10.968-4.295-10.968-9.593C36.043,6.133,40.953,1.838,47.011,1.838z M74.84,80.641   c-7.262,12.28-20.672,16.34-32.457,15.744c-6.536,0.592-17.099-6.303-19.23-8.981c-7.961-10.003-8.998-25.019-1.279-38.075   c4.49-7.596,11.203-13.215,18.566-16.238c0.105,0.598,0.262,1.275,0.482,1.785c0.01,0.024,0.021,0.049,0.032,0.072   c0.96,1.484,2.707,4.627,7.159,4.89c4.188-0.523,7.852-1.571,7.77-7.409c0-0.004,0-0.008,0-0.012   c-0.086-0.631-0.332-1.733,0.291-1.66c0.793-0.446,1.545-0.951,2.246-1.513c3.004,0.569,5.953,1.65,8.771,3.298   c5.508,3.22,9.51,7.913,11.92,13.357c3.746,6.317,4.607,14.263,0.824,24.376c-0.871,2.615-2.055,5.189-3.553,7.669   C75.9,78.828,75.389,79.727,74.84,80.641z"/>
	<polygon fill="#000000" points="42.047,8.398 46.082,9.783 45.707,11.03 46.414,11.231 46.847,9.979 51.148,11.424 50.797,12.659    51.561,12.881 52.434,9.924 51.715,9.718 51.299,10.917 47,9.455 47.459,8.232 46.771,7.971 46.322,9.192 42.264,7.884    42.656,6.879 41.969,6.65 41.02,9.169 41.674,9.389  "/>
	<polygon fill="#000000" points="43.391,3.312 42.383,6.046 43.004,6.274 44.212,2.999 43.428,2.71 42.005,3.305 42.227,3.843  "/>
	<path fill="#000000" d="M51.102,13.44l-1.639-0.529l-1.07,3.324l0.631,0.203l0.36-1.12l0.908,0.293   c0.338,0.108,0.45,0.333,0.341,0.676l-0.195,0.606l0.629,0.204l0.236-0.733c0.133-0.407,0.018-0.681-0.344-0.823l0.008-0.022   c0.252,0.03,0.438-0.004,0.555-0.102c0.117-0.099,0.23-0.315,0.338-0.652c0.119-0.37,0.125-0.65,0.016-0.842   C51.768,13.732,51.508,13.572,51.102,13.44z M51.182,14.672c-0.074,0.233-0.16,0.377-0.254,0.431   c-0.096,0.055-0.251,0.047-0.467-0.022l-0.906-0.292l0.368-1.142l0.948,0.306c0.207,0.066,0.328,0.145,0.367,0.232   C51.277,14.273,51.258,14.437,51.182,14.672z"/>
	<path fill="#000000" d="M45.676,11.709l-2.048,1.456l-0.221,0.711l1.8,0.559l-0.221,0.716l0.633,0.196l0.221-0.715l0.385,0.118   l0.15-0.488l-0.383-0.119l0.66-2.131L45.676,11.709z M45.359,13.946l-1.282-0.397l1.774-1.26l0.02,0.006L45.359,13.946z"/>
	<path fill="#000000" d="M41.123,13.295l-1.855-0.679l0.032-0.089c0.084-0.23,0.166-0.358,0.247-0.385   c0.08-0.026,0.326-0.005,0.738,0.067c0.498,0.085,0.836,0.086,1.014,0.004c0.177-0.081,0.335-0.313,0.475-0.694   c0.146-0.403,0.162-0.708,0.044-0.915c-0.118-0.206-0.415-0.396-0.893-0.571c-0.488-0.179-0.844-0.229-1.065-0.146   c-0.222,0.08-0.408,0.326-0.559,0.738l-0.05,0.136l0.61,0.224l0.051-0.14c0.087-0.239,0.178-0.375,0.272-0.41   s0.28-0.003,0.556,0.098c0.267,0.098,0.425,0.189,0.475,0.277c0.049,0.086,0.031,0.243-0.052,0.472   c-0.087,0.236-0.177,0.37-0.268,0.401c-0.093,0.031-0.345,0.011-0.755-0.062c-0.496-0.087-0.828-0.096-0.994-0.027   c-0.165,0.067-0.311,0.274-0.438,0.62l-0.244,0.668l2.479,0.906L41.123,13.295z"/>
	<path fill="#000000" d="M52.537,9.215c0.498,0.179,0.861,0.22,1.09,0.125c0.23-0.095,0.426-0.367,0.588-0.818   c0.156-0.439,0.186-0.768,0.088-0.98c-0.098-0.216-0.363-0.399-0.795-0.554c-0.379-0.136-0.66-0.141-0.842-0.014L52.654,6.97   l0.289-0.79l1.729,0.618l0.176-0.495l-2.305-0.823L51.914,7.24l0.562,0.201c0.094-0.139,0.336-0.139,0.725,0.001   c0.268,0.097,0.426,0.192,0.477,0.288c0.047,0.097,0.027,0.271-0.062,0.523c-0.117,0.321-0.219,0.507-0.309,0.553   c-0.092,0.047-0.289,0.015-0.592-0.093c-0.273-0.099-0.436-0.187-0.486-0.263c-0.051-0.077-0.045-0.224,0.02-0.44l-0.609-0.218   c-0.137,0.384-0.145,0.673-0.021,0.867S52.047,9.04,52.537,9.215z"/>
	<path fill="#000000" d="M47.424,7.504c0.512,0.169,0.878,0.216,1.1,0.139c0.221-0.076,0.395-0.31,0.523-0.701   c0.143-0.438,0.023-0.745-0.363-0.921l0.006-0.018c0.387,0.065,0.654-0.132,0.806-0.591c0.108-0.332,0.093-0.59-0.048-0.772   c-0.141-0.182-0.455-0.354-0.941-0.514c-0.482-0.157-0.826-0.199-1.033-0.122c-0.207,0.076-0.373,0.308-0.5,0.695l-0.041,0.124   l0.607,0.199l0.032-0.097c0.071-0.218,0.151-0.343,0.239-0.375c0.088-0.033,0.265-0.007,0.532,0.082   c0.296,0.097,0.469,0.183,0.521,0.256c0.053,0.073,0.042,0.22-0.029,0.438c-0.064,0.197-0.143,0.303-0.232,0.32   c-0.092,0.018-0.313-0.033-0.666-0.148L47.829,5.46l-0.16,0.488l0.108,0.036l0.275,0.09c0.217,0.072,0.351,0.147,0.4,0.226   c0.051,0.08,0.047,0.209-0.012,0.387c-0.077,0.233-0.163,0.368-0.259,0.404c-0.096,0.038-0.285,0.01-0.568-0.084   c-0.31-0.101-0.493-0.193-0.552-0.274c-0.059-0.082-0.051-0.238,0.025-0.466c0.004-0.016,0.017-0.06,0.035-0.134L46.509,5.93   l-0.063,0.186c-0.123,0.373-0.116,0.657,0.021,0.852C46.602,7.161,46.922,7.34,47.424,7.504z"/>
</g>
</svg>