<svg xmlns:dc="http://purl.org/dc/elements/1.1/" xmlns:cc="http://creativecommons.org/ns#" xmlns:rdf="http://www.w3.org/1999/02/22-rdf-syntax-ns#" xmlns:svg="http://www.w3.org/2000/svg" xmlns="http://www.w3.org/2000/svg" xmlns:sodipodi="http://sodipodi.sourceforge.net/DTD/sodipodi-0.dtd" xmlns:inkscape="http://www.inkscape.org/namespaces/inkscape" width="100" height="100" id="svg2" version="1.1" inkscape:version="0.48.4 r9939" sodipodi:docname="Question.svg">
  <defs id="defs4">
    <style id="style3087" type="text/css">
   
    .fil0 {fill:black}
   
  </style>
    <style id="style3191" type="text/css">
   
    .fil0 {fill:black}
   
  </style>
  </defs>
  <sodipodi:namedview id="base" pagecolor="#ffffff" bordercolor="#666666" borderopacity="1.0" inkscape:pageopacity="0.0" inkscape:pageshadow="2" inkscape:zoom="5.6" inkscape:cx="44.008611" inkscape:cy="45.561224" inkscape:document-units="px" inkscape:current-layer="layer1" showgrid="false" inkscape:window-width="1280" inkscape:window-height="961" inkscape:window-x="-8" inkscape:window-y="-8" inkscape:window-maximized="1"/>
  <metadata id="metadata7">
    <rdf:RDF>
      <cc:Work rdf:about="">
        <dc:format>image/svg+xml</dc:format>
        <dc:type rdf:resource="http://purl.org/dc/dcmitype/StillImage"/>
        <dc:title/>
      </cc:Work>
    </rdf:RDF>
  </metadata>
  <g inkscape:label="Layer 1" inkscape:groupmode="layer" id="layer1" transform="translate(0,-952.36218)">
    <polygon id="polygon3195" points="382,3162 382,3044 854,3044 854,3162 " class="fil0" style="fill:#000000;fill-rule:evenodd" transform="matrix(0.03174603,0,0,0.03174603,15.380952,921.34631)"/>
    <polygon id="polygon3197" points="441,2985 441,2631 795,2631 795,2985 " class="fil0" style="fill:#000000;fill-rule:evenodd" transform="matrix(0.03174603,0,0,0.03174603,15.380952,921.34631)"/>
    <polygon id="polygon3199" points="382,2572 382,2454 854,2454 854,2572 " class="fil0" style="fill:#000000;fill-rule:evenodd" transform="matrix(0.03174603,0,0,0.03174603,15.380952,921.34631)"/>
    <path id="path3201" d="m 33.634919,986.1717 c 0.666667,-0.38095 1.587302,-0.0635 2.063492,0.76191 0.317461,0.53968 0.349207,1.14286 0.126984,1.61905 l 2.920635,5.07936 0,4.69841 -1.396825,0 0,-4.31746 -2.730159,-4.73016 c -0.507936,-0.0317 -1.015873,-0.38095 -1.333333,-0.92063 -0.476191,-0.79365 -0.285714,-1.77778 0.380952,-2.15873 z" class="fil0" inkscape:connector-curvature="0" style="fill:#000000;fill-rule:evenodd"/>
    <path id="path3203" d="m 33.444443,994.71139 -6.730158,-1.80953 c -2.253968,-2.25397 -3.396825,-6.47619 -6.666667,-6.73016 -2.063492,-0.19047 -3.873015,1.36508 -4.063491,3.42857 l -1.428572,16.82543 1.36508,0.127 0,13.365 c 0,1.0159 0.857142,1.873 1.873015,1.873 l 1.111111,0 c 1.015873,0 1.873016,-0.8571 1.873016,-1.873 l 0,-12.9523 1.238095,0.095 1.047619,-12.44445 c 0.539683,0.53968 1.396826,1.5873 2.126984,1.77777 l 7.269841,1.93651 c 0.984127,0.25397 2.031746,-0.31746 2.285714,-1.33333 0.253969,-0.98413 -0.349206,-2.03175 -1.333333,-2.28571 z" class="fil0" inkscape:connector-curvature="0" style="fill:#000000;fill-rule:evenodd"/>
    <path id="path3205" d="m 21.984126,976.9971 c 2.063492,0 3.746032,1.87302 3.746032,4.22222 0,2.31746 -1.68254,4.22222 -3.746032,4.22222 -2.063492,0 -3.746031,-1.87301 -3.746031,-4.22222 0,-2.31746 1.682539,-4.22222 3.746031,-4.22222 z" class="fil0" inkscape:connector-curvature="0" style="fill:#000000;fill-rule:evenodd"/>
    <path id="path3207" d="m 62.047616,1012.1717 c 2.063492,0 3.746032,1.873 3.746032,4.2222 0,2.3175 -1.68254,4.2222 -3.746032,4.2222 -2.063492,0 -3.746031,-1.873 -3.746031,-4.2222 0,-2.3174 1.682539,-4.2222 3.746031,-4.2222 z" class="fil0" inkscape:connector-curvature="0" style="fill:#000000;fill-rule:evenodd"/>
    <path id="path3209" d="m 76.460314,1012.1717 c 2.063492,0 3.746031,1.873 3.746031,4.2222 0,2.3175 -1.682539,4.2222 -3.746031,4.2222 -2.063492,0 -3.746032,-1.873 -3.746032,-4.2222 0,-2.3174 1.68254,-4.2222 3.746032,-4.2222 z" class="fil0" inkscape:connector-curvature="0" style="fill:#000000;fill-rule:evenodd"/>
    <path id="path3211" d="m 61.253965,1021.7273 c 2.063492,0 3.746032,1.6825 3.746032,3.746 l 0,16.8571 -7.492063,0 0,-16.8571 c 0,-2.0635 1.682539,-3.746 3.746031,-3.746 z" class="fil0" inkscape:connector-curvature="0" style="fill:#000000;fill-rule:evenodd"/>
    <path id="path3213" d="m 91.253964,1021.7273 c 2.063492,0 3.746031,1.6825 3.746031,3.746 l 0,16.8571 -7.492063,0 0,-16.8571 c 0,-2.0635 1.68254,-3.746 3.746032,-3.746 z" class="fil0" inkscape:connector-curvature="0" style="fill:#000000;fill-rule:evenodd"/>
    <path id="path3215" d="m 91.253964,1012.1717 c 2.063492,0 3.746031,1.873 3.746031,4.2222 0,2.3175 -1.682539,4.2222 -3.746031,4.2222 -2.063492,0 -3.746032,-1.873 -3.746032,-4.2222 0,-2.3174 1.68254,-4.2222 3.746032,-4.2222 z" class="fil0" inkscape:connector-curvature="0" style="fill:#000000;fill-rule:evenodd"/>
    <path id="path3217" d="m 81.317456,1012.2352 0.03175,6.9524 -2.698412,3.4285 c -0.666667,-0.5396 -1.492064,-0.8888 -2.412698,-0.8888 -2.063492,0 -3.746032,1.6825 -3.746032,3.746 l 0,16.8571 7.492063,0 0,-15.3968 4.730159,-5.9682 c 0.285714,-0.381 0.412698,-0.8254 0.412698,-1.2699 l -0.03175,-7.4921 c 0,-1.0158 -0.857143,-1.873 -1.873016,-1.873 l 0,0 c -1.015873,0 -1.873016,0.8572 -1.873016,1.873 z" class="fil0" inkscape:connector-curvature="0" style="fill:#000000;fill-rule:evenodd"/>
    <path id="path3219" d="m 76.174599,993.66377 c -0.31746,0 -0.571428,-0.0952 -0.79365,-0.28572 -0.222223,-0.19047 -0.349207,-0.47619 -0.349207,-0.82539 0,-0.31747 0.09524,-0.57143 0.317461,-0.79366 0.222222,-0.22222 0.47619,-0.31746 0.79365,-0.31746 0.317461,0 0.571429,0.0952 0.793651,0.31746 0.222222,0.22223 0.31746,0.47619 0.31746,0.79366 0,0.3492 -0.126984,0.63492 -0.349206,0.82539 -0.222222,0.19048 -0.47619,0.28572 -0.793651,0.28572 z m 7.365079,-12.95238 c -1.873015,-1.87302 -4.444444,-3.01588 -7.301586,-3.01588 -2.857143,0 -5.428572,1.14286 -7.301587,3.01588 -1.873016,1.87301 -3.015873,4.44444 -3.015873,7.30158 0,2.4127 0.825397,4.63492 2.222222,6.38096 1.428571,1.77777 3.428571,3.11111 5.714285,3.65079 l 0,0 c 0.317461,0.0635 0.571429,0.28571 0.666667,0.60317 l 1.714286,5.14281 1.682539,-5.07931 c 0.09524,-0.31747 0.349206,-0.60318 0.698413,-0.69842 2.285714,-0.53968 4.285714,-1.84127 5.714285,-3.65079 1.396825,-1.74603 2.222222,-3.96825 2.222222,-6.38095 0,-2.85715 -1.142857,-5.42857 -3.015873,-7.30159 z m -7.301586,-4.88889 c 3.365079,0 6.412698,1.36508 8.603174,3.55555 2.190476,2.19048 3.555555,5.2381 3.555555,8.60318 0,2.85714 -0.984127,5.46031 -2.63492,7.55555 -1.555556,2 -3.746032,3.46032 -6.253968,4.19048 l -2.444445,7.30154 c -0.15873,0.4762 -0.698412,0.7619 -1.174603,0.6032 -0.285714,-0.095 -0.507936,-0.3174 -0.603174,-0.6032 l -2.444445,-7.30154 c -2.507936,-0.69841 -4.666666,-2.19048 -6.253968,-4.19048 -1.650793,-2.06349 -2.63492,-4.69841 -2.63492,-7.55555 0,-3.36508 1.365079,-6.4127 3.555555,-8.60318 2.190476,-2.19047 5.238095,-3.55555 8.603174,-3.55555 z" class="fil0" inkscape:connector-curvature="0" style="fill:#000000;fill-rule:evenodd"/>
    <path id="path3221" d="m 72.49206,985.44154 c 0,-0.47619 0.15873,-0.95238 0.444444,-1.42857 0.317461,-0.47619 0.761905,-0.88889 1.333334,-1.20635 0.571428,-0.31746 1.269841,-0.47619 2.063492,-0.47619 0.730158,0 1.365079,0.12699 1.936507,0.4127 0.539683,0.25397 0.984127,0.63492 1.269842,1.07937 0.31746,0.44444 0.444444,0.95238 0.444444,1.49206 0,0.4127 -0.09524,0.79365 -0.253968,1.11111 -0.15873,0.31746 -0.380953,0.60318 -0.603175,0.8254 -0.222222,0.22222 -0.666666,0.63492 -1.269841,1.1746 -0.15873,0.15873 -0.31746,0.28572 -0.412698,0.4127 -0.09524,0.12698 -0.190477,0.22222 -0.222223,0.31746 -0.06349,0.0952 -0.09524,0.19048 -0.126984,0.28571 -0.03175,0.0952 -0.06349,0.25397 -0.126984,0.50794 -0.09524,0.50794 -0.380952,0.79365 -0.888889,0.79365 -0.253968,0 -0.47619,-0.0952 -0.666666,-0.25397 -0.190476,-0.15873 -0.253969,-0.4127 -0.253969,-0.7619 0,-0.4127 0.06349,-0.79365 0.190477,-1.07937 0.126984,-0.31746 0.31746,-0.57142 0.507936,-0.79365 0.222222,-0.22222 0.507937,-0.50793 0.857143,-0.82539 0.31746,-0.28572 0.539682,-0.47619 0.698413,-0.63492 0.15873,-0.15873 0.253968,-0.31746 0.349206,-0.47619 0.09524,-0.15874 0.15873,-0.38096 0.15873,-0.57143 0,-0.4127 -0.15873,-0.73016 -0.444444,-1.01588 -0.285715,-0.28571 -0.666667,-0.41269 -1.142857,-0.41269 -0.539683,0 -0.952381,0.12698 -1.20635,0.41269 -0.253968,0.28572 -0.47619,0.69842 -0.666666,1.2381 -0.15873,0.57143 -0.507937,0.85714 -0.952381,0.85714 -0.285714,0 -0.507937,-0.0952 -0.698413,-0.28571 -0.190476,-0.19048 -0.285714,-0.4127 -0.285714,-0.63492 z" class="fil0" inkscape:connector-curvature="0" style="fill:#000000;fill-rule:evenodd"/>
    <polygon id="polygon3223" points="-327,3812 -327,3221 1091,3221 1091,3812 " class="fil0" style="fill:#000000;fill-rule:evenodd" transform="matrix(0.03174603,0,0,0.03174603,15.380952,921.34631)"/>
  </g>
</svg>